HIERARCHY
ROOT Hips
{
	OFFSET 0.000003 96.368652 -0.035689
	CHANNELS 6 Xposition Yposition Zposition Xrotation Yrotation Zrotation
	JOINT Spine
	{
		OFFSET 0.000010 9.226303 1.577100
		CHANNELS 6 Xposition Yposition Zposition Xrotation Yrotation Zrotation
		JOINT Spine1
		{
			OFFSET 0.000000 16.253998 -0.165600
			CHANNELS 6 Xposition Yposition Zposition Xrotation Yrotation Zrotation
			JOINT Spine2
			{
				OFFSET -0.000000 13.639587 -1.292299
				CHANNELS 6 Xposition Yposition Zposition Xrotation Yrotation Zrotation
				JOINT Neck
				{
					OFFSET 0.000000 13.877411 -4.354199
					CHANNELS 6 Xposition Yposition Zposition Xrotation Yrotation Zrotation
					JOINT Neck1
					{
						OFFSET 0.000000 4.339996 0.926899
						CHANNELS 6 Xposition Yposition Zposition Xrotation Yrotation Zrotation
						JOINT Head
						{
							OFFSET 0.000000 4.026611 0.858500
							CHANNELS 6 Xposition Yposition Zposition Xrotation Yrotation Zrotation
							JOINT HeadTop_End
							{
								OFFSET 0.000000 21.748810 0.000000
								CHANNELS 6 Xposition Yposition Zposition Xrotation Yrotation Zrotation
								End Site
								{
									OFFSET 0.000000 11.825378 0.000000
								}
							}
							JOINT L_Eye
							{
								OFFSET 3.005700 7.261795 7.955601
								CHANNELS 6 Xposition Yposition Zposition Xrotation Yrotation Zrotation
								End Site
								{
									OFFSET 0.000000 11.825378 0.000000
								}
							}
							JOINT R_Eye
							{
								OFFSET -3.005700 7.261795 7.955601
								CHANNELS 6 Xposition Yposition Zposition Xrotation Yrotation Zrotation
								End Site
								{
									OFFSET 0.000000 11.825378 0.000000
								}
							}
							JOINT Jaw
							{
								OFFSET 0.000000 2.030289 2.456200
								CHANNELS 6 Xposition Yposition Zposition Xrotation Yrotation Zrotation
								End Site
								{
									OFFSET 0.000000 11.825378 0.000000
								}
							}
						}
					}
				}
				JOINT L_Shoulder
				{
					OFFSET 6.144200 10.187012 -3.793198
					CHANNELS 6 Xposition Yposition Zposition Xrotation Yrotation Zrotation
					JOINT L_Arm
					{
						OFFSET 12.319103 -1.112991 -1.793500
						CHANNELS 3 Xrotation Yrotation Zrotation
						JOINT L_ForeArm
						{
							OFFSET 27.687006 -0.000015 -0.000000
							CHANNELS 3 Xrotation Yrotation Zrotation
							JOINT L_Hand
							{
								OFFSET 27.873787 0.000031 -0.000000
								CHANNELS 3 Xrotation Yrotation Zrotation
								JOINT L_HandThumb1
								{
									OFFSET 2.421021 -1.395554 2.392360
									CHANNELS 6 Xposition Yposition Zposition Xrotation Yrotation Zrotation
									JOINT L_HandThumb2
									{
										OFFSET 3.496521 -2.018692 2.018717
										CHANNELS 6 Xposition Yposition Zposition Xrotation Yrotation Zrotation
										JOINT L_HandThumb3
										{
											OFFSET 4.011398 -2.315994 2.315975
											CHANNELS 6 Xposition Yposition Zposition Xrotation Yrotation Zrotation
											JOINT L_HandThumb4
											{
												OFFSET 2.095787 -1.210007 1.209984
												CHANNELS 6 Xposition Yposition Zposition Xrotation Yrotation Zrotation
												End Site
												{
													OFFSET 1.877617 -1.197205 1.536803
												}
											}
										}
									}
								}
								JOINT L_HandIndex1
								{
									OFFSET 10.514771 -0.231369 2.264849
									CHANNELS 6 Xposition Yposition Zposition Xrotation Yrotation Zrotation
									JOINT L_HandIndex2
									{
										OFFSET 5.549301 0.000000 0.000000
										CHANNELS 3 Xrotation Yrotation Zrotation
										JOINT L_HandIndex3
										{
											OFFSET 3.391098 0.000000 0.000001
											CHANNELS 3 Xrotation Yrotation Zrotation
											JOINT L_HandIndex4
											{
												OFFSET 2.334351 0.000000 0.000011
												CHANNELS 6 Xposition Yposition Zposition Xrotation Yrotation Zrotation
												End Site
												{
													OFFSET 2.334351 0.000000 0.000101
												}
											}
										}
									}
								}
								JOINT L_HandMiddle1
								{
									OFFSET 10.490761 -0.000015 0.000002
									CHANNELS 6 Xposition Yposition Zposition Xrotation Yrotation Zrotation
									JOINT L_HandMiddle2
									{
										OFFSET 5.792099 0.000000 0.000000
										CHANNELS 3 Xrotation Yrotation Zrotation
										JOINT L_HandMiddle3
										{
											OFFSET 3.713196 0.000000 0.000000
											CHANNELS 3 Xrotation Yrotation Zrotation
											JOINT L_HandMiddle4
											{
												OFFSET 2.752045 -0.000031 0.000022
												CHANNELS 6 Xposition Yposition Zposition Xrotation Yrotation Zrotation
												End Site
												{
													OFFSET 2.752045 0.000031 -0.003599
												}
											}
										}
									}
								}
								JOINT L_HandRing1
								{
									OFFSET 10.240753 -0.046051 -2.314147
									CHANNELS 6 Xposition Yposition Zposition Xrotation Yrotation Zrotation
									JOINT L_HandRing2
									{
										OFFSET 5.445206 -0.000015 0.000676
										CHANNELS 3 Xrotation Yrotation Zrotation
										JOINT L_HandRing3
										{
											OFFSET 3.713196 0.000015 -0.000674
											CHANNELS 3 Xrotation Yrotation Zrotation
											JOINT L_HandRing4
											{
												OFFSET 2.280716 0.000000 -0.000046
												CHANNELS 3 Xrotation Yrotation Zrotation
												End Site
												{
													OFFSET 2.280716 -0.000061 0.003501
												}
											}
										}
									}
								}
								JOINT L_HandPinky1
								{
									OFFSET 9.820259 -0.209747 -4.418469
									CHANNELS 6 Xposition Yposition Zposition Xrotation Yrotation Zrotation
									JOINT L_HandPinky2
									{
										OFFSET 3.676300 0.000000 0.000000
										CHANNELS 3 Xrotation Yrotation Zrotation
										JOINT L_HandPinky3
										{
											OFFSET 2.811295 0.000000 0.000001
											CHANNELS 3 Xrotation Yrotation Zrotation
											JOINT L_HandPinky4
											{
												OFFSET 1.659546 0.000000 0.000000
												CHANNELS 3 Xrotation Yrotation Zrotation
												End Site
												{
													OFFSET 1.659546 0.000015 -0.001891
												}
											}
										}
									}
								}
							}
						}
					}
				}
				JOINT R_Shoulder
				{
					OFFSET -6.140200 10.187012 -3.793198
					CHANNELS 6 Xposition Yposition Zposition Xrotation Yrotation Zrotation
					JOINT R_Arm
					{
						OFFSET -12.323095 -1.113007 -1.793499
						CHANNELS 3 Xrotation Yrotation Zrotation
						JOINT R_ForeArm
						{
							OFFSET -27.687002 0.000015 -0.000002
							CHANNELS 3 Xrotation Yrotation Zrotation
							JOINT R_Hand
							{
								OFFSET -27.873795 -0.000015 0.000000
								CHANNELS 3 Xrotation Yrotation Zrotation
								JOINT R_HandPinky1
								{
									OFFSET -9.791023 -0.212921 -4.378341
									CHANNELS 6 Xposition Yposition Zposition Xrotation Yrotation Zrotation
									JOINT R_HandPinky2
									{
										OFFSET -3.652802 0.000000 0.000000
										CHANNELS 3 Xrotation Yrotation Zrotation
										JOINT R_HandPinky3
										{
											OFFSET -2.781998 0.000000 0.000000
											CHANNELS 3 Xrotation Yrotation Zrotation
											JOINT R_HandPinky4
											{
												OFFSET -1.612122 0.000198 0.000004
												CHANNELS 3 Xrotation Yrotation Zrotation
												End Site
												{
													OFFSET -1.612106 0.000320 -0.007100
												}
											}
										}
									}
								}
								JOINT R_HandRing1
								{
									OFFSET -10.391914 0.105164 -2.349891
									CHANNELS 6 Xposition Yposition Zposition Xrotation Yrotation Zrotation
									JOINT R_HandRing2
									{
										OFFSET -5.401306 0.000000 0.000000
										CHANNELS 3 Xrotation Yrotation Zrotation
										JOINT R_HandRing3
										{
											OFFSET -3.391602 0.000000 0.000000
											CHANNELS 3 Xrotation Yrotation Zrotation
											JOINT R_HandRing4
											{
												OFFSET -2.353172 0.000305 -0.000032
												CHANNELS 3 Xrotation Yrotation Zrotation
												End Site
												{
													OFFSET -2.353180 0.000275 0.001400
												}
											}
										}
									}
								}
								JOINT R_HandMiddle1
								{
									OFFSET -10.779236 0.000000 0.000001
									CHANNELS 6 Xposition Yposition Zposition Xrotation Yrotation Zrotation
									JOINT R_HandMiddle2
									{
										OFFSET -5.616806 0.000000 0.000000
										CHANNELS 3 Xrotation Yrotation Zrotation
										JOINT R_HandMiddle3
										{
											OFFSET -3.736397 0.000000 0.000000
											CHANNELS 3 Xrotation Yrotation Zrotation
											JOINT R_HandMiddle4
											{
												OFFSET -2.691521 0.000336 -0.000028
												CHANNELS 3 Xrotation Yrotation Zrotation
												End Site
												{
													OFFSET -2.691513 0.000214 0.009200
												}
											}
										}
									}
								}
								JOINT R_HandIndex1
								{
									OFFSET -10.577324 -0.175369 2.287349
									CHANNELS 6 Xposition Yposition Zposition Xrotation Yrotation Zrotation
									JOINT R_HandIndex2
									{
										OFFSET -5.376801 0.000000 0.000001
										CHANNELS 3 Xrotation Yrotation Zrotation
										JOINT R_HandIndex3
										{
											OFFSET -3.385498 0.000000 0.000001
											CHANNELS 3 Xrotation Yrotation Zrotation
											JOINT R_HandIndex4
											{
												OFFSET -2.363556 0.000305 0.000042
												CHANNELS 3 Xrotation Yrotation Zrotation
												End Site
												{
													OFFSET -2.363548 0.000381 -0.006501
												}
											}
										}
									}
								}
								JOINT R_HandThumb1
								{
									OFFSET -2.570442 -1.245102 2.319054
									CHANNELS 6 Xposition Yposition Zposition Xrotation Yrotation Zrotation
									JOINT R_HandThumb2
									{
										OFFSET -3.518791 -2.031555 2.031563
										CHANNELS 6 Xposition Yposition Zposition Xrotation Yrotation Zrotation
										JOINT R_HandThumb3
										{
											OFFSET -3.945267 -2.277756 2.277756
											CHANNELS 6 Xposition Yposition Zposition Xrotation Yrotation Zrotation
											JOINT R_HandThumb4
											{
												OFFSET -2.055496 -1.186386 1.186664
												CHANNELS 3 Xrotation Yrotation Zrotation
												End Site
												{
													OFFSET -1.840202 -1.174805 1.508071
												}
											}
										}
									}
								}
							}
						}
					}
				}
			}
		}
	}
	JOINT L_UpLeg
	{
		OFFSET 9.633796 -3.273308 -0.000000
		CHANNELS 6 Xposition Yposition Zposition Xrotation Yrotation Zrotation
		JOINT L_Leg
		{
			OFFSET -0.006490 -41.762173 -0.553830
			CHANNELS 3 Xrotation Yrotation Zrotation
			JOINT L_Foot
			{
				OFFSET 0.006493 -39.146984 -2.021915
				CHANNELS 3 Xrotation Yrotation Zrotation
				JOINT L_ToeBase
				{
					OFFSET -0.183300 -12.185708 8.282301
					CHANNELS 6 Xposition Yposition Zposition Xrotation Yrotation Zrotation
					JOINT L_Toe_End
					{
						OFFSET -0.094684 -0.116787 6.663326
						CHANNELS 3 Xrotation Yrotation Zrotation
						End Site
						{
							OFFSET -0.094684 -0.116787 6.663328
						}
					}
				}
			}
		}
	}
	JOINT R_UpLeg
	{
		OFFSET -9.633803 -3.273293 0.000000
		CHANNELS 6 Xposition Yposition Zposition Xrotation Yrotation Zrotation
		JOINT R_Leg
		{
			OFFSET -0.006491 -41.762146 -0.555884
			CHANNELS 3 Xrotation Yrotation Zrotation
			JOINT R_Foot
			{
				OFFSET 0.006493 -39.147087 -2.019920
				CHANNELS 3 Xrotation Yrotation Zrotation
				JOINT R_ToeBase
				{
					OFFSET -0.183299 -12.185700 8.282300
					CHANNELS 6 Xposition Yposition Zposition Xrotation Yrotation Zrotation
					JOINT R_Toe_End
					{
						OFFSET 0.094687 -0.116863 6.675869
						CHANNELS 3 Xrotation Yrotation Zrotation
						End Site
						{
							OFFSET 0.094687 -0.116863 6.675869
						}
					}
				}
			}
		}
	}
}
MOTION
Frames: 4
Frame Time: 0.033333
-1.087316 91.603706 -1.756451 -16.904168 -38.980467 -9.366874 0.000011 9.226313 1.577098 6.532800 -1.624555 0.769355 0.000000 16.253996 -0.165599 16.408322 -1.374602 1.185771 -0.000001 13.639557 -1.292300 17.551467 -2.393392 0.970739 0.000001 13.877396 -4.354195 -4.499094 8.299580 4.310620 -0.000005 4.340012 0.926897 0.000001 -0.000001 0.000002 0.000003 4.026623 0.858502 -12.739993 18.680332 12.992854 -0.000000 21.748825 -0.000001 0.000000 0.000001 0.000002 3.005699 7.261795 7.955600 0.000000 0.000001 0.000002 -3.005701 7.261810 7.955600 0.000000 0.000001 0.000002 -0.000001 2.030304 2.456200 0.000000 0.000001 0.000002 6.144198 10.186996 -3.793191 -35.321446 -9.288569 21.361577 -29.083420 20.845430 -71.421546 0.000176 -69.604805 0.000146 -120.279126 2.605782 27.982774 2.421025 -1.395547 2.392358 4.582809 8.662618 2.787686 3.496525 -2.018721 2.018730 19.464123 -2.409818 7.277841 4.011416 -2.316010 2.315979 -4.536153 -9.613130 1.492939 2.095782 -1.210024 1.209985 -0.000000 0.000002 0.000002 10.514776 -0.231366 2.264848 -0.278726 3.644290 -34.040037 2.704244 4.935517 -57.416585 0.406157 2.145267 -21.439033 2.334333 0.000016 0.000006 -0.000001 -0.000001 -0.000002 10.490754 -0.000013 0.000001 0.310602 5.331768 -50.621950 3.218376 5.227432 -63.216720 0.227594 1.618641 -16.005549 2.752051 -0.000062 0.000025 -0.000006 -0.000003 -0.000003 10.240749 -0.046059 -2.314147 -0.169166 5.549846 -59.228586 3.867129 5.498786 -70.246624 0.503408 2.388275 -23.914342 0.000001 -0.000000 0.000000 9.820258 -0.209765 -4.418466 -6.573844 4.493387 -72.187982 3.053119 5.141040 -61.387719 0.169303 1.399689 -13.792998 -0.000001 0.000001 -0.000001 -6.140200 10.186990 -3.793198 -41.839529 -7.608127 -8.419047 -59.860618 56.762857 117.108197 -0.007925 89.702240 0.007372 -48.451084 -21.977437 -20.246764 -9.791016 -0.212905 -4.378339 -3.996051 -3.304564 64.593830 4.059445 -4.619356 82.610510 2.316010 -4.027433 59.794474 0.000001 0.000001 0.000004 -10.391925 0.105188 -2.349879 -3.348729 -2.601013 57.010534 5.441668 -4.591619 99.698161 1.689066 -3.590748 50.389464 0.000001 -0.000000 -0.000002 -10.779248 0.000018 0.000010 3.413307 -7.186815 51.650201 6.297781 -4.360261 110.634701 0.248564 -1.502728 18.797425 0.000001 0.000000 0.000000 -10.577333 -0.175349 2.287361 -0.920015 1.683436 12.434988 0.748235 -2.533838 32.898272 0.616226 -2.317291 29.775117 0.000000 -0.000000 -0.000001 -2.570420 -1.245127 2.319055 8.377481 -4.904323 11.022404 -3.518806 -2.031526 2.031564 21.620026 -18.183929 -18.379361 -3.945267 -2.277763 2.277742 -0.699490 -49.821459 -32.527007 -0.000003 0.000002 -0.000001 9.633795 -3.273312 -0.000002 -23.620649 42.212847 30.060520 26.358467 0.384991 -0.653888 1.139420 1.287331 -3.359551 -0.183301 -12.185704 8.282303 -0.951814 -0.000001 -0.000001 0.000000 0.000001 -0.000000 -9.633806 -3.273291 -0.000000 1.531242 4.870219 -4.178580 37.289196 -0.134083 1.096198 -24.768709 -17.298503 2.851224 -0.183296 -12.185701 8.282301 -0.020504 -0.000011 -0.000001 -0.000000 0.000003 -0.000000 
-0.653198 91.953873 -1.400529 -16.904098 -38.980153 -9.365117 0.000009 9.226289 1.577100 6.993211 -1.200517 0.003308 0.000000 16.253979 -0.165602 16.544591 -1.169960 -0.047775 -0.000001 13.639585 -1.292300 17.623925 -1.847735 0.531508 0.000001 13.877376 -4.354202 -2.051977 7.776345 3.311802 -0.000000 4.340012 0.926905 0.000002 -0.000001 0.000000 0.000004 4.026610 0.858501 -8.884495 17.451360 10.130980 -0.000003 21.748810 -0.000004 0.000000 0.000001 0.000001 3.005700 7.261795 7.955598 0.000000 0.000001 0.000001 -3.005703 7.261780 7.955601 0.000000 0.000001 0.000001 -0.000006 2.030273 2.456202 0.000000 0.000001 0.000001 6.144200 10.186992 -3.793192 -35.784102 -8.186596 16.615263 -34.546390 15.117751 -69.517611 0.000190 -69.468672 0.000145 -116.832817 2.453572 29.856806 2.421040 -1.395549 2.392363 4.673827 9.304657 3.019397 3.496518 -2.018723 2.018735 19.471196 -1.741269 7.534946 4.011416 -2.315989 2.315973 -4.536148 -9.613131 1.492938 2.095774 -1.210024 1.209983 -0.000001 0.000002 0.000002 10.514781 -0.231392 2.264848 -0.261680 3.725091 -34.791102 2.769631 4.976536 -58.173479 0.434788 2.216749 -22.191332 2.334332 -0.000003 0.000008 -0.000003 -0.000001 -0.000002 10.490746 -0.000012 0.000002 0.339680 5.386420 -51.186824 3.270246 5.253210 -63.784589 0.243794 1.674038 -16.569149 2.752061 -0.000046 0.000025 -0.000001 -0.000001 0.000003 10.240756 -0.046063 -2.314149 -0.138026 5.609571 -59.797432 3.922234 5.518292 -70.819875 0.527282 2.441373 -24.483300 -0.000002 -0.000005 0.000000 9.820254 -0.209743 -4.418468 -6.565251 4.545570 -72.425209 3.122806 5.178302 -62.162692 0.175369 1.424124 -14.038866 -0.000000 -0.000003 -0.000000 -6.140202 10.186991 -3.793203 -42.122159 -6.383610 -8.014083 -51.260532 56.905188 108.647389 0.000611 92.861886 -0.000578 -48.672454 -19.586293 -21.812113 -9.791019 -0.212912 -4.378325 -3.996050 -3.304564 64.593830 4.059445 -4.619357 82.610510 2.316011 -4.027433 59.794481 0.000000 0.000001 -0.000000 -10.391913 0.105189 -2.349887 -3.348729 -2.601013 57.010530 5.441668 -4.591617 99.698161 1.689066 -3.590750 50.389464 0.000001 0.000001 -0.000000 -10.779222 0.000010 0.000006 3.413307 -7.186815 51.650191 6.297781 -4.360261 110.634701 0.248563 -1.502728 18.797425 0.000000 -0.000000 0.000001 -10.577318 -0.175349 2.287357 -0.920016 1.683436 12.434989 0.748235 -2.533838 32.898269 0.616225 -2.317290 29.775113 0.000000 -0.000000 -0.000001 -2.570414 -1.245117 2.319063 8.377485 -4.904316 11.022404 -3.518809 -2.031549 2.031589 21.620035 -18.183932 -18.379359 -3.945267 -2.277747 2.277737 -0.699484 -49.821463 -32.526997 -0.000000 -0.000000 0.000002 9.633791 -3.273314 0.000002 -22.495681 42.773841 29.032276 25.030878 0.449296 -0.662548 1.461964 1.282176 -3.073175 -0.183301 -12.185708 8.282299 -0.120173 0.000000 0.000003 0.000000 -0.000000 -0.000000 -9.633805 -3.273293 0.000000 2.315682 4.976121 -4.615020 35.656299 -0.176657 1.094702 -23.777340 -17.358885 3.274548 -0.183300 -12.185700 8.282300 -0.020500 -0.000009 -0.000000 -0.000000 0.000003 -0.000000 
-0.285259 92.300514 -0.775024 -16.903619 -38.977916 -9.372025 0.000011 9.226292 1.577103 7.403986 -0.979805 -0.367935 -0.000000 16.253992 -0.165602 16.528730 -1.164695 -0.517512 -0.000000 13.639581 -1.292300 17.315629 -1.417494 0.296476 0.000000 13.877416 -4.354206 0.264616 7.584718 2.251783 0.000002 4.340012 0.926901 0.000002 0.000001 -0.000003 0.000004 4.026620 0.858495 -6.931542 18.251208 8.818188 0.000008 21.748810 0.000001 -0.000002 -0.000001 0.000002 3.005705 7.261795 7.955604 -0.000002 -0.000001 0.000002 -3.005696 7.261795 7.955606 -0.000002 -0.000001 0.000002 0.000004 2.030289 2.456205 -0.000002 -0.000001 0.000002 6.144202 10.187005 -3.793202 -36.338731 -6.968115 11.473032 -38.231998 9.030330 -67.539520 0.000162 -68.444998 0.000118 -115.267830 2.356538 31.255178 2.421033 -1.395507 2.392358 4.709432 9.560583 3.111874 3.496526 -2.018724 2.018732 19.473170 -1.474868 7.636988 4.011401 -2.315985 2.315976 -4.536150 -9.613131 1.492938 2.095782 -1.209994 1.209979 0.000003 -0.000002 0.000002 10.514784 -0.231361 2.264851 -0.248431 3.784839 -35.348978 2.818537 5.006483 -58.735659 0.456680 2.269577 -22.750129 2.334332 0.000004 0.000013 0.000001 -0.000002 0.000001 10.490766 0.000001 0.000002 0.358352 5.421083 -51.547981 3.303549 5.269388 -64.147655 0.254434 1.709364 -16.929452 2.752056 -0.000038 0.000017 -0.000003 0.000001 -0.000002 10.240763 -0.046056 -2.314149 -0.118315 5.647085 -60.158059 3.957244 5.530368 -71.183241 0.542670 2.474901 -24.843964 0.000003 -0.000001 0.000001 9.820258 -0.209720 -4.418466 -6.565249 4.545585 -72.425209 3.173040 5.204380 -62.717461 0.175349 1.424124 -14.038849 0.000002 0.000004 -0.000001 -6.140201 10.187004 -3.793202 -42.045651 -6.407297 -8.168058 -47.196228 57.022493 104.185172 0.000508 94.709671 -0.000416 -49.361576 -18.337910 -23.133463 -9.791012 -0.212905 -4.378349 -3.996051 -3.304564 64.593830 4.059445 -4.619356 82.610510 2.316009 -4.027433 59.794481 -0.000000 0.000001 -0.000001 -10.391921 0.105181 -2.349899 -3.348728 -2.601014 57.010534 5.441669 -4.591618 99.698161 1.689067 -3.590750 50.389461 -0.000000 -0.000000 -0.000002 -10.779237 0.000018 -0.000008 3.413307 -7.186816 51.650198 6.297781 -4.360261 110.634694 0.248564 -1.502728 18.797427 -0.000000 -0.000000 -0.000000 -10.577322 -0.175349 2.287329 -0.920016 1.683436 12.434989 0.748236 -2.533837 32.898272 0.616226 -2.317291 29.775117 0.000000 0.000001 0.000001 -2.570420 -1.245122 2.319043 8.377478 -4.904320 11.022406 -3.518809 -2.031556 2.031558 21.620031 -18.183931 -18.379363 -3.945256 -2.277736 2.277737 -0.699482 -49.821466 -32.527003 -0.000006 0.000002 -0.000001 9.633797 -3.273323 -0.000001 -21.249927 43.318245 27.992593 23.931067 0.492291 -0.660892 1.490288 1.283789 -2.879176 -0.183300 -12.185705 8.282304 0.000107 0.000004 -0.000005 0.000000 0.000001 -0.000000 -9.633804 -3.273296 0.000002 3.426326 5.053765 -5.147100 33.741876 -0.207677 1.093501 -22.807069 -17.426753 3.769661 -0.183298 -12.185701 8.282303 -0.020500 -0.000016 0.000001 -0.000000 0.000003 -0.000000 
-0.080076 92.557739 -0.244412 -16.903190 -38.975863 -9.379002 0.000011 9.226304 1.577100 7.722046 -0.876405 -0.385887 -0.000000 16.253984 -0.165598 16.504471 -1.254538 -0.545216 0.000000 13.639605 -1.292301 16.934872 -1.172522 -0.274996 0.000001 13.877398 -4.354192 1.402350 7.805370 1.289892 -0.000001 4.339996 0.926893 -0.000002 0.000003 -0.000001 -0.000006 4.026612 0.858502 -6.816912 20.291478 9.711545 0.000005 21.748810 0.000010 -0.000001 -0.000000 0.000001 3.005704 7.261795 7.955608 -0.000001 -0.000000 0.000001 -3.005698 7.261795 7.955612 -0.000001 -0.000000 0.000001 0.000002 2.030289 2.456210 -0.000001 -0.000000 0.000001 6.144201 10.186978 -3.793172 -36.907812 -5.840483 6.683329 -40.553678 3.405425 -64.953412 0.000155 -67.676438 0.000126 -115.253691 2.503137 32.687339 2.421022 -1.395529 2.392358 4.709431 9.560585 3.111863 3.496521 -2.018691 2.018727 19.473170 -1.474862 7.636969 4.011399 -2.315986 2.315972 -4.536148 -9.613134 1.492939 2.095767 -1.210020 1.209971 -0.000001 0.000002 0.000002 10.514781 -0.231388 2.264848 -0.235272 3.841705 -35.881067 2.865464 5.034533 -59.271876 0.478016 2.319770 -23.283090 2.334360 0.000007 0.000008 0.000001 0.000002 -0.000004 10.490772 -0.000002 -0.000000 0.376364 5.454015 -51.892454 3.335385 5.284629 -64.493945 0.264783 1.742999 -17.273108 2.752034 -0.000060 0.000025 -0.000002 -0.000002 -0.000002 10.240769 -0.046021 -2.314147 -0.099299 5.682777 -60.502014 3.990742 5.541676 -71.529805 0.557562 2.506786 -25.187936 0.000000 -0.000000 0.000001 9.820268 -0.209732 -4.418471 -6.565249 4.545559 -72.425215 3.221135 5.228826 -63.246595 0.175364 1.424126 -14.038869 -0.000001 0.000002 0.000002 -6.140199 10.186998 -3.793190 -41.748397 -7.097924 -8.761902 -47.247974 57.451501 103.368438 0.000340 95.847573 -0.000277 -50.332374 -17.456536 -24.997321 -9.791019 -0.212913 -4.378328 -3.996051 -3.304564 64.593830 4.059445 -4.619357 82.610510 2.316011 -4.027433 59.794474 -0.000000 0.000000 -0.000002 -10.391917 0.105158 -2.349883 -3.348728 -2.601014 57.010534 5.441669 -4.591619 99.698161 1.689066 -3.590749 50.389458 -0.000000 0.000000 -0.000001 -10.779233 0.000018 0.000007 3.413307 -7.186816 51.650198 6.297781 -4.360261 110.634701 0.248563 -1.502728 18.797425 -0.000001 -0.000000 0.000000 -10.577322 -0.175349 2.287353 -0.920015 1.683436 12.434989 0.748235 -2.533839 32.898269 0.616226 -2.317290 29.775113 0.000000 0.000000 -0.000001 -2.570414 -1.245137 2.319061 8.377485 -4.904322 11.022405 -3.518817 -2.031530 2.031562 21.620031 -18.183931 -18.379358 -3.945252 -2.277740 2.277748 -0.699486 -49.821466 -32.527000 -0.000005 0.000005 0.000004 9.633798 -3.273315 -0.000002 -20.244522 43.717527 27.215422 23.096278 0.512218 -0.658189 1.485508 1.285108 -2.792862 -0.183303 -12.185707 8.282300 0.000010 0.000003 0.000007 0.000000 -0.000000 -0.000000 -9.633803 -3.273294 0.000000 4.388107 5.078068 -5.541202 32.174504 -0.233247 1.092604 -22.083108 -17.468805 4.121961 -0.183300 -12.185699 8.282299 -0.020503 -0.000008 -0.000000 0.000000 0.000003 -0.000000 
